<svg xmlns="http://www.w3.org/2000/svg" viewBox="0 0 384 512">
  <path fill="#6366f1" d="M0 64C0 28.7 28.7 0 64 0H224V128c0 17.7 14.3 32 32 32H384V448c0 35.3-28.7 64-64 64H64c-35.3 0-64-28.7-64-64V64zm384 64H256V0L384 128zM176 240c0-8.8-7.2-16-16-16H96c-8.8 0-16 7.2-16 16s7.2 16 16 16h48v96H96c-8.8 0-16 7.2-16 16s7.2 16 16 16h128c8.8 0 16-7.2 16-16s-7.2-16-16-16h-48V240zm48 112h32c8.8 0 16-7.2 16-16V272c0-8.8-7.2-16-16-16H224c-8.8 0-16 7.2-16 16v64c0 8.8 7.2 16 16 16zm16-64h16v32h-16V288z"/>
</svg>
